<svg width="64" height="64" viewBox="0 0 64 64" fill="none" xmlns="http://www.w3.org/2000/svg">
<path d="M0 12.5C0 5.59644 5.59644 0 12.5 0H51.5C58.4036 0 64 5.59644 64 12.5V51.5C64 58.4036 58.4036 64 51.5 64H12.5C5.59644 64 0 58.4036 0 51.5V12.5Z" fill="#131313"/>
<path d="M31.2582 55.153H29.5621C23.5382 55.153 20.5263 54.6904 20.5263 53.7652C20.5263 53.2307 21.03 52.6447 22.0374 52.0074C23.0654 51.3701 23.7336 50.4963 24.0419 49.3861C24.3709 48.2553 24.5354 45.0789 24.5354 39.8569C24.5354 34.6349 24.3812 31.6641 24.0728 30.9445C23.785 30.2249 23.2401 29.5979 22.4383 29.0633C21.6365 28.5082 21.2356 28.0148 21.2356 27.5831C21.2356 27.1308 21.6879 26.3392 22.5925 25.2085C23.5177 24.0572 24.1653 22.6797 24.5354 21.0761C25.4811 17.0876 26.7866 14.1887 28.4519 12.3795C30.5695 10.0563 33.5403 8.89474 37.3643 8.89474C39.2146 8.89474 40.6949 9.22368 41.8051 9.88158C42.9153 10.5189 43.4704 11.3516 43.4704 12.3795C43.4704 13.4075 43.1929 14.1682 42.6378 14.6616C42.1032 15.155 41.5276 15.4017 40.9108 15.4017C40.3146 15.4017 39.3277 15.0317 37.9503 14.2915C36.5933 13.5514 35.5654 13.1813 34.8664 13.1813C33.7356 13.1813 32.8618 13.8906 32.2451 15.3092C31.6489 16.7072 31.3507 18.2492 31.3507 19.935C31.3507 21.6209 31.7003 22.8544 32.3993 23.6357C32.646 23.903 33.5609 24.4478 35.1439 25.2701C36.727 26.072 37.5185 26.7813 37.5185 27.398C37.5185 27.8709 36.7064 28.354 35.0822 28.8475C33.4581 29.3203 32.4507 29.8446 32.06 30.4202C31.4021 31.3865 31.0732 34.5115 31.0732 39.7952C31.0732 45.0584 31.2582 48.2245 31.6283 49.2936C32.0189 50.3627 32.7693 51.2981 33.8795 52.0999C34.9897 52.9017 35.5448 53.5185 35.5448 53.9502C35.5448 54.7521 34.116 55.153 31.2582 55.153Z" fill="white"/>
</svg>
